# xmcd
#
# Track frame offsets:
#	150
#	16638
#	29983
#	41707
#	60455
#	74408
#	88339
#	107100
#	123981
#	140758
#	157576
#	172422
#	188625
#	203611
#	217503
#
# Disc length: 3121 seconds
#
# Revision: 0
# Processed by: cddbd v1.5.2PL0 Copyright (c) Steve Scherf et al.
# Submitted via: audiograbber 1.83.01
#
DISCID=d10c2f0f
DTITLE=Various Artist - CDX 643
DYEAR=2017
DGENRE=Country
TTITLE0=Easton Corbin - A Girl Like You
TTITLE1=Cole Swindell - Flatliner (Radio Edit)
TTITLE2=Kip Moore - More Girls Like You
TTITLE3=Wheeler Bryson - Pour Me Out Of This Town
TTITLE4=Keith Urban ft. Carrie Underwood- - The Fighter
TTITLE5=Lady Antebellum - You Look Good
TTITLE6=Danny Worsnop - Anyone But Me
TTITLE7=Marty Rhone - Graceland on the Line
TTITLE8=Rachael Turner - Hurts Don't It
TTITLE9=Johnny Orr Band - I Don't Speak Spanish
TTITLE10=Ty Williams - Make America Great Again
TTITLE11=Lisa Bouchelle ft. John Popper - Only The Tequila Talkin'
TTITLE12=Caroline Jones - Tough Guys
TTITLE13=Denny Strickland - We Don't Sleep
TTITLE14=Jamie Talbert and The Band of Demons - Wildfire
EXTD=
EXTT0=
EXTT1=
EXTT2=
EXTT3=
EXTT4=
EXTT5=
EXTT6=
EXTT7=
EXTT8=
EXTT9=
EXTT10=
EXTT11=
EXTT12=
EXTT13=
EXTT14=
PLAYORDER=
